# xmcd
#
# Track frame offsets:
#	150
#	14181
#	29717
#	41973
#	53271
#	67737
#	80965
#	93489
#	105145
#	116380
#	131358
#	144600
#	154508
#	166864
#	182271
#
# Disc length: 2638 seconds
#
# Revision: 0
# Processed by: cddbd v1.5.1PL0 Copyright (c) Steve Scherf et al.
# Submitted via: audiograbber 1.82.02
#
DISCID=ba0a4c0f
DTITLE=Various Artist - Solid Gold Soul 1969 -1972 CD2
DYEAR=1969
DGENRE=Soul
TTITLE0=Jacksons 5 - The Love You Save
TTITLE1=Johnny Nash - Cupid
TTITLE2=Nina Simone - To Love Somebody
TTITLE3=Otis Redding - Papa's Got A Brand New Bag
TTITLE4=Donnie Elbert - Where Did Our Love Go
TTITLE5=Temptations - I Can't Get Next To You
TTITLE6=Jean Knight - Mr. Big Stuff
TTITLE7=Mel and Tim - Backfield In Motion
TTITLE8=Jr. Walker and The All Stars - What Does It Take To (Win Your Love)
TTITLE9=Isaac Hayes - Do Your Thing
TTITLE10=Sly and The Family Stone - Runnin' Away
TTITLE11=Archie Bell and The Drells - Here I Go Again
TTITLE12=Fifth Dimension - Wedding Bell Blues
TTITLE13=Drifters - Like Sister And Brother
TTITLE14=Diana Ross and The Supremes - Someday We'll Be Together
EXTD=
EXTT0=
EXTT1=
EXTT2=
EXTT3=
EXTT4=
EXTT5=
EXTT6=
EXTT7=
EXTT8=
EXTT9=
EXTT10=
EXTT11=
EXTT12=
EXTT13=
EXTT14=
PLAYORDER=
